<?xml version="1.0" encoding="UTF-8" standalone="no"?>
<svg
   width="456"
   height="456"
   viewBox="0 0 456 456"
   version="1.1"
   xml:space="preserve"
   style="clip-rule:evenodd;fill-rule:evenodd;stroke-linejoin:round;stroke-miterlimit:2"
   id="svg10"
   sodipodi:docname="appiconfg.svg"
   xmlns:inkscape="http://www.inkscape.org/namespaces/inkscape"
   xmlns:sodipodi="http://sodipodi.sourceforge.net/DTD/sodipodi-0.dtd"
   xmlns="http://www.w3.org/2000/svg"
   xmlns:svg="http://www.w3.org/2000/svg"><defs
   id="defs14" /><sodipodi:namedview
   id="namedview12"
   pagecolor="#ffffff"
   bordercolor="#000000"
   borderopacity="0.25"
   inkscape:showpageshadow="2"
   inkscape:pageopacity="0.0"
   inkscape:pagecheckerboard="0"
   inkscape:deskcolor="#d1d1d1"
   showgrid="false" />
    <path
   d="m 105.50037,281.60863 c -2.70293,0 -5.00091,-0.90042 -6.893127,-2.70209 -1.892214,-1.84778 -2.837901,-4.04181 -2.837901,-6.58209 0,-2.58722 0.945687,-4.80389 2.837901,-6.65167 1.892217,-1.84778 4.190197,-2.77167 6.893127,-2.77167 2.74819,0 5.06798,0.92389 6.96019,2.77167 1.93749,1.84778 2.90581,4.06445 2.90581,6.65167 0,2.54028 -0.96832,4.73431 -2.90581,6.58209 -1.89221,1.80167 -4.212,2.70209 -6.96019,2.70209 z"
   style="fill:#ffffff;fill-rule:nonzero;stroke-width:0.838376"
   id="path2" />
    <path
   d="m 122.79313,271.49234 v -17.57067 l 73.03006,-46.29091 c 1.84778,-1.17121 3.76515,-2.14037 5.75126,-2.90581 v -0.40578 c -2.12528,0.36051 -6.67515,0.54076 -13.6496,0.54076 h -65.13172 v -15.54348 h 99.36009 v 18.71924 l -71.29798,44.73741 c -2.95695,1.89222 -4.98917,3.10869 -6.09751,3.64945 v 0.26995 c 2.6325,-0.4502 7.09015,-0.67572 13.37293,-0.67572 h 64.02256 v 15.47557 z"
   style="fill:#ffffff;fill-rule:nonzero;stroke-width:0.838376"
   id="path4" />
    <path
   d="m 311.73113,203.20415 v 54.40052 h -99.3601 v -52.23835 h 13.99669 v 36.15411 h 28.13086 v -33.31621 h 13.92709 v 33.31621 h 29.37836 v -38.31628 z"
   style="fill:#ffffff;fill-rule:nonzero;stroke-width:0.838376"
   id="path6" />
    <path
   d="m 294.86343,266.08776 h 27.84246 v -85.3634 h 16.08423 v 85.3634 h 27.77455 v 13.99669 h -71.70124 z"
   style="fill:#ffffff;fill-rule:nonzero;stroke-width:0.838376"
   id="path8" />
</svg>
